<svg width="230" height="22" fill="none" xmlns="http://www.w3.org/2000/svg"><g clip-path="url(#clip0_1245_117)" fill="#B7B7B7"><path d="M24.566 2.908v3.888h-9.507v13.586H9.548V6.796H.04V2.908h24.525zm20.374 0c1.198 0 2.289.284 3.273.851a6.58 6.58 0 012.353 2.282c.585.953.878 2.012.878 3.172a5.976 5.976 0 01-.878 3.179 6.5 6.5 0 01-2.353 2.281c-.984.563-2.075.845-3.273.845H32.67v4.863h-5.497V2.908H44.94zm-1.503 8.736c.689 0 1.278-.239 1.77-.715.491-.476.737-1.048.737-1.716 0-.668-.246-1.239-.737-1.716a2.455 2.455 0 00-1.77-.715H32.67v4.863h10.768v-.001zm24.848-8.736l9.669 17.473h-6.115l-1.89-3.64H58.603l-1.89 3.64h-6.115l9.669-17.473h8.017zm-.175 10.284l-3.836-7.436-3.848 7.436h7.684zm23.076 3.744c.393 0 .923-.02 1.588-.058a9.789 9.789 0 002.086-.364 5.69 5.69 0 001.984-1.007c.6-.468 1.037-1.122 1.314-1.964h5.619c-.331 2.384-1.537 4.189-3.62 5.415-2.083 1.227-5.074 1.84-8.971 1.84-4.265 0-7.445-.737-9.542-2.21-2.096-1.474-3.144-3.632-3.144-6.475v-.962c0-2.843 1.048-5.001 3.144-6.475 2.097-1.473 5.277-2.21 9.541-2.21 3.898 0 6.888.614 8.972 1.84 2.083 1.226 3.289 3.026 3.62 5.402h-5.619c-.277-.832-.715-1.482-1.314-1.95A5.69 5.69 0 0094.86 6.75a9.777 9.777 0 00-2.086-.364 28.917 28.917 0 00-1.588-.058c-.358 0-.834.015-1.429.045-.595.03-1.223.125-1.884.28a6.496 6.496 0 00-1.877.768 4.228 4.228 0 00-1.455 1.488c-.38.638-.57 1.463-.57 2.477v.481c0 1.014.19 1.84.57 2.476.38.638.866 1.136 1.455 1.496.59.36 1.216.618 1.877.774.661.156 1.29.25 1.884.28.595.028 1.071.043 1.428.043zm39.028-14.028v3.888h-9.507v13.586h-5.511V6.796h-9.507V2.908h24.525zm12.096-.331h-.758v17.759h.758V2.576zm11.124 3.321c0-.94.234-1.667.7-2.18.467-.513 1.099-.77 1.895-.77.646 0 1.19.172 1.632.516.441.345.705.836.79 1.475l-.904.085c-.071-.437-.245-.77-.521-.994a1.523 1.523 0 00-.997-.34c-.502 0-.904.196-1.206.587-.301.39-.453.93-.453 1.62 0 .688.152 1.229.458 1.619.305.39.713.586 1.222.586.401 0 .741-.12 1.017-.36.276-.24.454-.582.533-1.028l.904.076c-.086.653-.352 1.16-.797 1.518-.444.359-.997.538-1.657.538-.812 0-1.449-.254-1.916-.764-.466-.51-.7-1.238-.7-2.184zm6.61-2.82h3.961v5.638h-.947V3.852h-2.175c-.022.309-.049.735-.085 1.28-.029.531-.053.915-.071 1.152-.018.237-.048.531-.091.883s-.094.599-.15.742c-.058.144-.137.3-.238.468a.737.737 0 01-.365.334c-.144.053-.316.08-.517.08a3.46 3.46 0 01-.462-.043v-.753c.072.007.157.01.258.01a.436.436 0 00.377-.204c.092-.136.17-.407.232-.812.061-.406.102-.763.124-1.07.022-.31.05-.844.086-1.604l.063-1.237zm9.301 0h1.012l-2.099 6.284c-.194.623-.424 1.053-.689 1.286-.265.233-.668.35-1.206.35-.18 0-.388-.01-.624-.032v-.73c.258.013.448.021.57.021.294 0 .516-.072.668-.215.15-.143.291-.417.419-.818l.162-.506h-.527L164.9 3.079h1.033l1.853 5.262 1.559-5.263zm9.732 5.638h-1.162L176.02 6.23h-.7v2.486h-.926V6.23h-.7l-1.895 2.486h-1.162l2.347-2.927-2.261-2.713h1.119l1.819 2.41h.732V3.079h.926v2.41h.731l1.82-2.41h1.119l-2.261 2.712 2.349 2.926zm3.273-5.466c.746 0 1.35.251 1.808.753.459.503.689 1.184.689 2.045 0 .868-.239 1.552-.717 2.05-.477.5-1.125.748-1.943.748-1.781 0-2.669-1.195-2.669-3.583 0-1.255.175-2.213.527-2.874.352-.66.926-1.072 1.722-1.237.151-.036.307-.067.468-.091.162-.025.334-.049.516-.07.183-.023.322-.04.414-.054.474-.072.847-.162 1.12-.27v.743c-.193.121-.527.22-1.001.29-.107.016-.273.037-.495.066-.223.029-.409.053-.561.076a2.453 2.453 0 00-.748.198 1.964 1.964 0 00-.597.462c-.194.211-.348.52-.463.92-.114.402-.19.901-.226 1.496.15-.523.411-.933.781-1.226.373-.294.83-.442 1.375-.442zm-.162 4.854c.532 0 .951-.185 1.26-.555.31-.37.463-.87.463-1.501 0-.632-.155-1.131-.463-1.501-.309-.37-.728-.555-1.26-.555-.538 0-.962.185-1.27.555-.309.37-.462.87-.462 1.501 0 .632.155 1.131.462 1.501.31.37.733.555 1.27.555zm3.414-.861c0-1.011.739-1.59 2.218-1.733l1.679-.161V4.81c0-.352-.113-.636-.339-.856-.227-.22-.558-.324-.995-.317-.402 0-.732.091-.991.274-.258.184-.399.458-.42.824h-.872c.022-.61.24-1.06.657-1.35.415-.292.958-.437 1.626-.437.739 0 1.303.176 1.69.527.388.352.581.857.581 1.518v3.724h-.861V7.556a2.07 2.07 0 01-.818.952c-.366.226-.812.34-1.335.34-.603 0-1.057-.15-1.362-.448-.307-.298-.458-.684-.458-1.157zm.937-.033c0 .28.096.509.291.688.195.18.484.27.872.27.552 0 .991-.175 1.314-.522.323-.348.485-.798.485-1.35V5.95l-1.572.162c-.928.086-1.39.452-1.39 1.098zm-32.782 12.543v-5.638h.947v2.378h2.918v-2.378h.937v5.638h-.937v-2.486h-2.918v2.486h-.947zm5.91-2.818c0-.962.242-1.693.726-2.195.485-.503 1.129-.754 1.933-.754.825 0 1.454.256 1.889.765.433.509.651 1.284.651 2.324v.13h-4.252c.036.646.214 1.14.533 1.48.319.341.737.512 1.254.512.732 0 1.232-.323 1.497-.968l.893.053a2.131 2.131 0 01-.84 1.179c-.408.283-.926.425-1.55.425-.839 0-1.505-.25-1.997-.748-.491-.5-.737-1.235-.737-2.203zm.958-.356h3.306c-.007-.588-.156-1.053-.447-1.394-.292-.34-.677-.512-1.157-.512-.474 0-.865.163-1.173.49-.309.327-.486.799-.529 1.416zm9.711 2.401h.657v2.291h-.893v-1.518h-3.864v1.518h-.893v-2.292h.419a3.52 3.52 0 00.221-.673c.061-.262.115-.669.162-1.22.047-.553.078-.96.096-1.222.018-.262.053-.844.102-1.748h3.995v4.863h-.002zm-.948 0v-4.09h-2.229c-.13 1.843-.233 2.988-.312 3.433a4.565 4.565 0 01-.172.656h2.713zm5.544-2.132c1.106.1 1.658.56 1.658 1.377 0 .444-.161.81-.484 1.098-.323.287-.84.43-1.55.43h-2.66v-5.638h2.53c.653 0 1.148.13 1.485.387.337.258.507.603.507 1.034.001.731-.495 1.168-1.486 1.312zm-2.088-2.023v1.744h1.507c.38 0 .663-.078.845-.237a.793.793 0 00.275-.635c0-.58-.391-.872-1.173-.872h-1.454zm1.604 4.22c.796 0 1.195-.313 1.195-.938 0-.61-.417-.914-1.249-.914h-1.55v1.851h1.604zm6.804-4.93h1.411v5.638h-.904v-4.96l-2.627 4.96h-1.421v-5.638h.915v4.96l2.626-4.96zm10.658 5.638h-1.162l-1.895-2.486h-.699v2.486h-.927v-2.486h-.699l-1.895 2.486h-1.163l2.347-2.927-2.261-2.713h1.119l1.82 2.41h.731v-2.408h.926v2.41h.732l1.819-2.41h1.119l-2.261 2.712 2.349 2.926zm4.349-5.638h1.411v5.638h-.904v-4.96l-2.627 4.96h-1.421v-5.638h.915v4.96l2.626-4.96zm8.021 0h1.572v5.638h-.915v-4.982l-1.873 4.982h-1.184l-1.862-4.982v4.982h-.915v-5.638h1.583l1.798 5.122 1.796-5.122zm3.408 4.977c-.485-.527-.728-1.247-.728-2.157 0-.911.243-1.631.728-2.158.484-.527 1.131-.79 1.943-.79.811 0 1.457.263 1.938.79.48.527.722 1.247.722 2.158 0 .91-.241 1.63-.722 2.157-.481.527-1.127.79-1.938.79-.812 0-1.459-.263-1.943-.79zm.677-3.76c-.312.4-.468.936-.468 1.603 0 .667.156 1.201.468 1.603.312.401.735.603 1.266.603.523 0 .943-.202 1.255-.603.311-.402.467-.937.467-1.603 0-.668-.156-1.202-.467-1.603-.312-.402-.731-.603-1.255-.603-.531 0-.954.2-1.266.603zm4.709 1.603c0-.94.234-1.667.7-2.18.467-.513 1.099-.77 1.895-.77.646 0 1.19.173 1.632.516.441.345.705.836.791 1.475l-.905.085c-.071-.437-.245-.77-.521-.994a1.524 1.524 0 00-.997-.34c-.502 0-.904.196-1.206.587-.301.39-.453.93-.453 1.62 0 .688.152 1.229.458 1.62.306.39.713.585 1.222.585.402 0 .741-.12 1.017-.36.276-.24.454-.582.533-1.027l.904.075c-.086.653-.352 1.16-.796 1.518-.445.359-.998.538-1.658.538-.812 0-1.449-.254-1.916-.764-.466-.51-.7-1.238-.7-2.184zm5.513-2.045v-.775h4.759v.775h-1.906v4.865h-.947V14.89h-1.906zm9.236-.775h1.411v5.638h-.904v-4.96l-2.627 4.96h-1.421v-5.638h.915v4.96l2.626-4.96z"/></g><defs><clipPath id="clip0_1245_117"><path fill="#fff" d="M0 0h230v22H0z"/></clipPath></defs></svg>