<svg width="21" height="21" fill="none" xmlns="http://www.w3.org/2000/svg"><path d="M19.334 1.828A5.647 5.647 0 0015.134 0a5.283 5.283 0 00-3.3 1.139A6.75 6.75 0 0010.5 2.532a6.747 6.747 0 00-1.334-1.393A5.282 5.282 0 005.866 0a5.65 5.65 0 00-4.2 1.828C.592 2.994 0 4.586 0 6.311c0 1.776.662 3.402 2.083 5.117 1.271 1.533 3.098 3.09 5.214 4.893.722.616 1.54 1.314 2.391 2.057a1.231 1.231 0 001.623 0c.85-.743 1.67-1.441 2.393-2.057 2.115-1.803 3.942-3.36 5.213-4.894C20.338 9.713 21 8.087 21 6.311c0-1.725-.592-3.317-1.666-4.483z" fill="#EFEFEF"/></svg>